<?xml version="1.0" encoding="utf-8"?>
<!-- Generator: Adobe Illustrator 18.0.0, SVG Export Plug-In . SVG Version: 6.00 Build 0)  -->
<!DOCTYPE svg PUBLIC "-//W3C//DTD SVG 1.1//EN" "http://www.w3.org/Graphics/SVG/1.1/DTD/svg11.dtd">
<svg version="1.1"
	 id="svg2985" xmlns:svg="http://www.w3.org/2000/svg" xmlns:dc="http://purl.org/dc/elements/1.1/" xmlns:cc="http://creativecommons.org/ns#" xmlns:rdf="http://www.w3.org/1999/02/22-rdf-syntax-ns#"
	 xmlns="http://www.w3.org/2000/svg" xmlns:xlink="http://www.w3.org/1999/xlink" x="0px" y="0px" viewBox="0 0 630 630"
	 enable-background="new 0 0 630 630" xml:space="preserve">
<g id="layer1" transform="translate(0,-422.35975)">
	<path id="rect3034" fill="none" stroke="#000000" d="M427.3,962.4H247.7v-36H234v36h-54 M427.3,962.4v-36H441v36h54"/>
	<path id="path3060" fill="none" stroke="#000000" d="M571.4,727.1L515.9,898l-34.2-11.1l-4.2,13l34.2,11.1L495,962.4 M571.4,727.1
		L537.2,716l4.2-13l34.2,11.1l16.7-51.4"/>
	<path id="path3062" fill="none" stroke="#000000" d="M392.3,517.4L537.6,623l-21.2,29.1l11.1,8l21.2-29.1l43.7,31.7 M392.3,517.4
		l-21.2,29.1l-11.1-8l21.2-29.1l-43.7-31.7"/>
	<path id="path3064" fill="none" stroke="#000000" d="M137.4,623l145.3-105.6l21.2,29.1l11.1-8l-21.2-29.1l43.7-31.7 M137.4,623
		l21.2,29.1l-11.1,8L126.3,631l-43.7,31.7"/>
	<path id="path3066" fill="none" stroke="#000000" d="M159.1,898l-55.5-170.8l34.2-11.1l-4.2-13l-34.2,11.1l-16.7-51.4 M159.1,898
		l34.2-11.1l4.2,13L163.3,911l16.7,51.4"/>
	<g id="g3099">
	</g>
	<path id="path3107" fill="none" stroke="#000000" d="M146.5,961.1l-16.1-8l-16.1,32.2l-12.2-6.1l16.1-32.2l-16.1-8l-27.2,54.4H13.9
		v18h36l0,13.7h-36l0,18h91.6L146.5,961.1z"/>
</g>
</svg>
